<svg width="65" xmlns="http://www.w3.org/2000/svg" height="80" id="screenshot-85dc5bc9-f183-800c-8007-b6dbaf1d369d" viewBox="0 0 65 80" xmlns:xlink="http://www.w3.org/1999/xlink" fill="none" version="1.1"><g id="shape-85dc5bc9-f183-800c-8007-b6dbaf1d369d" rx="0" ry="0" style="opacity: 1;"><g id="shape-85dc5bc9-f183-800c-8007-b6dbaf1d36a5"><g class="fills" id="fills-85dc5bc9-f183-800c-8007-b6dbaf1d36a5"><path d="M33.78515625,0C29.775390625,-0.011474609375,25.39453125,1.0595703125,20.8837890625,3.4130859375C18.162109375,4.832275390625,23.0546875,11.179931640625,25.29296875,10.10888671875C25.517578125,10,25.740234375,9.9052734375,25.9619140625,9.8046875L24.56640625,7.3857421875L27.5625,9.1455078125C45.3125,2.4365234375,48.982421875,23.28759765625,39.212890625,31.318359375C41.22265625,33.533203125,45.3857421875,37.0751953125,49.060546875,37.916748046875C59.4892578125,16.730224609375,49.509765625,0.04541015625,33.78515625,0Z" style="fill: rgb(254, 174, 1);"/></g></g><g id="shape-85dc5bc9-f183-800c-8007-b6dbaf1d36a6"><g class="fills" id="fills-85dc5bc9-f183-800c-8007-b6dbaf1d36a6"><path d="M44.337890625,63.55322265625C43.640625,64.013671875,33.171875,80.009765625,32.3173828125,80C31.462890625,79.990234375,21.38671875,63.777587890625,20.69921875,63.30224609375C20.013671875,62.8271484375,0.4248046875,58.50732421875,0.1708984375,57.7490234375C-0.083984375,56.98876953125,13.3740234375,43.0634765625,13.6474609375,42.3095703125C13.921875,41.5556640625,12.283203125,22.890625,12.98046875,22.429931640625C13.6767578125,21.9697265625,32.072265625,29.57666015625,32.9287109375,29.5869140625C33.783203125,29.5947265625,52.357421875,22.3779296875,53.044921875,22.85302734375C53.73046875,23.328369140625,51.638671875,41.95458984375,51.89453125,42.714599609375C52.150390625,43.474609375,65.26953125,57.6806640625,64.99609375,58.43408203125C64.72265625,59.1875,45.0341796875,63.0927734375,44.337890625,63.55322265625Z" style="fill: rgb(254, 174, 1);"/></g></g><g id="shape-85dc5bc9-f183-800c-8007-b6dbaf1d36a7"><g class="fills" id="fills-85dc5bc9-f183-800c-8007-b6dbaf1d36a7"><path d="M32.470703125,67.25732421875C31.615234375,67.2587890625,13.12890625,74.716796875,12.435546875,74.2509765625C11.7431640625,73.78564453125,13.583984375,55.1416015625,13.318359375,54.386474609375C13.052734375,53.630859375,-0.263671875,39.60595703125,0,38.84912109375C0.263671875,38.09228515625,19.90625,33.9306640625,20.59765625,33.4619140625C21.291015625,32.9931640625,31.546875,16.8681640625,32.40234375,16.865234375C33.2578125,16.863525390625,43.556640625,32.9345703125,44.25,33.39990234375C44.9423828125,33.865234375,64.59765625,37.9248046875,64.86328125,38.679931640625C65.1279296875,39.43505859375,51.849609375,53.5302734375,51.587890625,54.287109375C51.32421875,55.0439453125,53.2158203125,73.6767578125,52.5244140625,74.1455078125C51.8330078125,74.615966796875,33.3251953125,67.255859375,32.470703125,67.25732421875Z" style="fill: rgb(237, 120, 6);"/></g></g><g id="shape-85dc5bc9-f183-800c-8007-b6dbaf1d36a8"><g class="fills" id="fills-85dc5bc9-f183-800c-8007-b6dbaf1d36a8"><path d="M53.0546875,49.4697265625C53.0546875,51.990234375,52.51953125,54.4873046875,51.4765625,56.816162109375C50.435546875,59.1455078125,48.908203125,61.2626953125,46.9833984375,63.044921875C45.05859375,64.8291015625,42.7734375,66.2431640625,40.2578125,67.20849609375C37.7412109375,68.172119140625,35.044921875,68.67041015625,32.3232421875,68.67041015625C29.599609375,68.67041015625,26.904296875,68.172119140625,24.388671875,67.20849609375C21.8720703125,66.2431640625,19.5869140625,64.8291015625,17.662109375,63.044921875C15.736328125,61.2626953125,14.208984375,59.1455078125,13.1689453125,56.816162109375C12.125,54.4873046875,11.58984375,51.990234375,11.58984375,49.4697265625C11.58984375,46.9482421875,12.125,44.44970703125,13.1689453125,42.120849609375C14.208984375,39.791748046875,15.736328125,37.673828125,17.662109375,35.8916015625C19.5869140625,34.109619140625,21.8720703125,32.6953125,24.388671875,31.730224609375C26.904296875,30.7646484375,29.599609375,30.2685546875,32.3232421875,30.2685546875C35.044921875,30.2685546875,37.7412109375,30.7646484375,40.2578125,31.730224609375C42.7734375,32.6953125,45.05859375,34.109619140625,46.9833984375,35.8916015625C48.908203125,37.673828125,50.435546875,39.791748046875,51.4765625,42.120849609375C52.51953125,44.44970703125,53.0546875,46.9482421875,53.0546875,49.4697265625Z" fill-rule="evenodd" clip-rule="evenodd" style="fill: rgb(254, 189, 77);"/></g></g><g id="shape-85dc5bc9-f183-800c-8007-b6dbaf1d36a9"><g class="fills" id="fills-85dc5bc9-f183-800c-8007-b6dbaf1d36a9"><path d="M27.9326171875,54.91845703125C21.3916015625,49.7197265625,26.6953125,43.5009765625,32.0146484375,43.4716796875C37.3359375,43.4423828125,42.046875,50.3544921875,35.7509765625,54.84375C37.54296875,58.1005859375,40.66015625,64.7978515625,41.703125,66.5947265625C35.044921875,69.64501953125,27.4140625,69.003662109375,22.9765625,66.581787109375C24.89453125,63.49462890625,27.625,55.251953125,27.9326171875,54.91845703125L27.9326171875,54.91845703125Z" style="fill: rgb(255, 251, 157);"/></g></g><g id="shape-85dc5bc9-f183-800c-8007-b6dbaf1d36aa"><g class="fills" id="fills-85dc5bc9-f183-800c-8007-b6dbaf1d36aa"><path d="M14.93359375,43.9990234375C18.8203125,37.56982421875,29.818359375,30.1171875,43.16015625,36.12451171875C35.0078125,26.48583984375,16.19140625,32.429931640625,14.93359375,43.9990234375Z" style="fill: rgb(255, 251, 157);"/></g></g></g></svg>