<svg width="65" xmlns="http://www.w3.org/2000/svg" height="80" id="screenshot-85dc5bc9-f183-800c-8007-b6dc97f10dd1" viewBox="0 0 65 80" xmlns:xlink="http://www.w3.org/1999/xlink" fill="none" version="1.1"><g id="shape-85dc5bc9-f183-800c-8007-b6dc97f10dd1" rx="0" ry="0" style="opacity: 1;"><g id="shape-85dc5bc9-f183-800c-8007-b6dc97f10de5"><g class="fills" id="fills-85dc5bc9-f183-800c-8007-b6dc97f10de5"><path d="M33.785125732421875,0C29.775360107421875,-0.011474609375,25.394500732421875,1.0595703125,20.883758544921875,3.4130859375C18.162078857421875,4.832275390625,23.054656982421875,11.179931640625,25.292938232421875,10.10888671875C25.517547607421875,10,25.740203857421875,9.9052734375,25.961883544921875,9.8046875L24.566375732421875,7.3857421875L27.562469482421875,9.1455078125C45.312469482421875,2.4365234375,48.982391357421875,23.28759765625,39.212860107421875,31.318359375C41.222625732421875,33.533203125,45.385711669921875,37.0751953125,49.060516357421875,37.916748046875C59.489227294921875,16.730224609375,49.509735107421875,0.04541015625,33.785125732421875,0Z" style="fill: rgb(254, 174, 1);"/></g></g><g id="shape-85dc5bc9-f183-800c-8007-b6dc97f10de6"><g class="fills" id="fills-85dc5bc9-f183-800c-8007-b6dc97f10de6"><path d="M44.337860107421875,63.55322265625C43.640594482421875,64.013671875,33.171844482421875,80.009765625,32.317352294921875,80C31.462860107421875,79.990234375,21.386688232421875,63.777587890625,20.699188232421875,63.30224609375C20.013641357421875,62.8271484375,0.424774169921875,58.50732421875,0.170867919921875,57.7490234375C-0.084014892578125,56.98876953125,13.373992919921875,43.0634765625,13.647430419921875,42.3095703125C13.921844482421875,41.5556640625,12.283172607421875,22.890625,12.980438232421875,22.429931640625C13.676727294921875,21.9697265625,32.072235107421875,29.57666015625,32.928680419921875,29.5869140625C33.783172607421875,29.5947265625,52.357391357421875,22.3779296875,53.044891357421875,22.85302734375C53.730438232421875,23.328369140625,51.638641357421875,41.95458984375,51.894500732421875,42.714599609375C52.150360107421875,43.474609375,65.26950073242188,57.6806640625,64.99606323242188,58.43408203125C64.72262573242188,59.1875,45.034149169921875,63.0927734375,44.337860107421875,63.55322265625Z" style="fill: rgb(254, 174, 1);"/></g></g><g id="shape-85dc5bc9-f183-800c-8007-b6dc97f10de7"><g class="fills" id="fills-85dc5bc9-f183-800c-8007-b6dc97f10de7"><path d="M32.470672607421875,67.25732421875C31.615203857421875,67.2587890625,13.128875732421875,74.716796875,12.435516357421875,74.2509765625C11.743133544921875,73.78564453125,13.583953857421875,55.1416015625,13.318328857421875,54.386474609375C13.052703857421875,53.630859375,-0.263702392578125,39.60595703125,-0.000030517578125,38.84912109375C0.263641357421875,38.09228515625,19.906219482421875,33.9306640625,20.597625732421875,33.4619140625C21.290985107421875,32.9931640625,31.546844482421875,16.8681640625,32.402313232421875,16.865234375C33.257781982421875,16.863525390625,43.556610107421875,32.9345703125,44.249969482421875,33.39990234375C44.942352294921875,33.865234375,64.59762573242188,37.9248046875,64.86325073242188,38.679931640625C65.12789916992188,39.43505859375,51.849578857421875,53.5302734375,51.587860107421875,54.287109375C51.324188232421875,55.0439453125,53.215789794921875,73.6767578125,52.524383544921875,74.1455078125C51.832977294921875,74.615966796875,33.325164794921875,67.255859375,32.470672607421875,67.25732421875Z" style="fill: rgb(237, 120, 6);"/></g></g><g id="shape-85dc5bc9-f183-800c-8007-b6dc97f10de8"><g class="fills" id="fills-85dc5bc9-f183-800c-8007-b6dc97f10de8"><path d="M53.054656982421875,49.4697265625C53.054656982421875,51.990234375,52.519500732421875,54.4873046875,51.476531982421875,56.816162109375C50.435516357421875,59.1455078125,48.908172607421875,61.2626953125,46.983367919921875,63.044921875C45.058563232421875,64.8291015625,42.773406982421875,66.2431640625,40.257781982421875,67.20849609375C37.741180419921875,68.172119140625,35.044891357421875,68.67041015625,32.323211669921875,68.67041015625C29.599578857421875,68.67041015625,26.904266357421875,68.172119140625,24.388641357421875,67.20849609375C21.872039794921875,66.2431640625,19.586883544921875,64.8291015625,17.662078857421875,63.044921875C15.736297607421875,61.2626953125,14.208953857421875,59.1455078125,13.168914794921875,56.816162109375C12.124969482421875,54.4873046875,11.589813232421875,51.990234375,11.589813232421875,49.4697265625C11.589813232421875,46.9482421875,12.124969482421875,44.44970703125,13.168914794921875,42.120849609375C14.208953857421875,39.791748046875,15.736297607421875,37.673828125,17.662078857421875,35.8916015625C19.586883544921875,34.109619140625,21.872039794921875,32.6953125,24.388641357421875,31.730224609375C26.904266357421875,30.7646484375,29.599578857421875,30.2685546875,32.323211669921875,30.2685546875C35.044891357421875,30.2685546875,37.741180419921875,30.7646484375,40.257781982421875,31.730224609375C42.773406982421875,32.6953125,45.058563232421875,34.109619140625,46.983367919921875,35.8916015625C48.908172607421875,37.673828125,50.435516357421875,39.791748046875,51.476531982421875,42.120849609375C52.519500732421875,44.44970703125,53.054656982421875,46.9482421875,53.054656982421875,49.4697265625Z" fill-rule="evenodd" clip-rule="evenodd" style="fill: rgb(254, 189, 77);"/></g></g><g id="shape-85dc5bc9-f183-800c-8007-b6dc97f10de9"><g class="fills" id="fills-85dc5bc9-f183-800c-8007-b6dc97f10de9"><path d="M27.932586669921875,54.91845703125C21.391571044921875,49.7197265625,26.695281982421875,43.5009765625,32.014617919921875,43.4716796875C37.335906982421875,43.4423828125,42.046844482421875,50.3544921875,35.750946044921875,54.84375C37.542938232421875,58.1005859375,40.660125732421875,64.7978515625,41.703094482421875,66.5947265625C35.044891357421875,69.64501953125,27.414031982421875,69.003662109375,22.976531982421875,66.581787109375C24.894500732421875,63.49462890625,27.624969482421875,55.251953125,27.932586669921875,54.91845703125L27.932586669921875,54.91845703125Z" style="fill: rgb(255, 251, 157);"/></g></g><g id="shape-85dc5bc9-f183-800c-8007-b6dc97f10dea"><g class="fills" id="fills-85dc5bc9-f183-800c-8007-b6dc97f10dea"><path d="M14.933563232421875,43.9990234375C18.820281982421875,37.56982421875,29.818328857421875,30.1171875,43.160125732421875,36.12451171875C35.007781982421875,26.48583984375,16.191375732421875,32.429931640625,14.933563232421875,43.9990234375Z" style="fill: rgb(255, 251, 157);"/></g></g></g></svg>